<svg xmlns="http://www.w3.org/2000/svg" width="46.489" height="46.489" viewBox="0 0 46.489 46.489">
  <g id="Group_487" data-name="Group 487" transform="translate(-317 -148)">
    <g id="vuesax-linear-blogger" transform="translate(329 160)">
      <g id="vuesax-linear-blogger-2" data-name="vuesax-linear-blogger" transform="translate(-12 -12)">
        <g id="blogger">
          <path id="Vector" d="M25.668,39.489H13.821C3.949,39.489,0,35.54,0,25.668V13.821C0,3.949,3.949,0,13.821,0H25.668C35.54,0,39.489,3.949,39.489,13.821V25.668C39.489,35.54,35.54,39.489,25.668,39.489Z" transform="translate(3.5 3.5)" fill="#f2d6ff"/>
          <path id="BG_1" data-name="BG 1" d="M0,0H46.489V46.489H0Z" fill="none" opacity="0.58"/>
          <path id="Vector-2" data-name="Vector" d="M0,0H46.489V46.489H0Z" fill="none" opacity="0"/>
        </g>
      </g>
    </g>
    <path id="Vector-3" data-name="Vector" d="M.032,6.639V19.854a5.841,5.841,0,0,0,6.607,6.607H19.854a5.841,5.841,0,0,0,6.607-6.607V13.247a2.081,2.081,0,0,0-2.2-2.2,2.081,2.081,0,0,1-2.2-2.2v-2.2A5.841,5.841,0,0,0,15.449.032H6.639A5.841,5.841,0,0,0,.032,6.639Z" transform="translate(326.998 158.48)" fill="#bd3cff" stroke="#bd3cff" stroke-width="1.5"/>
    <text id="_8" data-name="8" transform="translate(330 181)" fill="#fff" font-size="13" font-family="Inter-Black, Inter" font-weight="800"><tspan x="0" y="0">8</tspan></text>
  </g>
</svg>
