<svg xmlns="http://www.w3.org/2000/svg" width="32.7" height="31.528" viewBox="0 0 32.7 31.528">
  <path id="instagram" d="M310.95.373H301.1a11.232,11.232,0,0,0-11.424,11.012v9.5A11.231,11.231,0,0,0,301.1,31.894h9.85a11.232,11.232,0,0,0,11.426-11.012v-9.5A11.07,11.07,0,0,0,311.254.367c-.1,0-.2,0-.3.006m2.1,15.824A7.1,7.1,0,1,1,305.7,9.368c.089,0,.174-.006.261-.006a6.94,6.94,0,0,1,7.093,6.785Zm2.1-6.834a1.759,1.759,0,1,1,.081,0c-.028,0-.055,0-.081,0" transform="translate(-289.676 -0.367)"/>
</svg>
