<svg xmlns="http://www.w3.org/2000/svg" width="31.53" height="31.528" viewBox="0 0 31.53 31.528">
  <path id="linkedin" d="M139.184.063A15.764,15.764,0,1,0,154.95,15.827,15.765,15.765,0,0,0,139.184.063m-4.58,23.83h-3.84V12.343h3.84Zm-1.92-13.128h-.026a2.193,2.193,0,1,1,.026,0m15.764,13.128H144.61V17.714c0-1.553-.558-2.611-1.945-2.611a2.1,2.1,0,0,0-1.971,1.4,2.625,2.625,0,0,0-.126.937v6.451h-3.84s.051-10.468,0-11.551h3.84v1.635a3.81,3.81,0,0,1,3.461-1.905c2.525,0,4.42,1.65,4.42,5.2Z" transform="translate(-123.42 -0.063)"/>
</svg>
