<svg id="Group_432" data-name="Group 432" xmlns="http://www.w3.org/2000/svg" width="37.278" height="37.278" viewBox="0 0 37.278 37.278">
  <g id="vuesax-linear-blogger">
    <g id="vuesax-linear-blogger-2" data-name="vuesax-linear-blogger">
      <g id="blogger">
        <path id="Vector" d="M20.582,31.665h-9.5C3.166,31.665,0,28.5,0,20.582v-9.5C0,3.166,3.166,0,11.083,0h9.5C28.5,0,31.665,3.166,31.665,11.083v9.5C31.665,28.5,28.5,31.665,20.582,31.665Z" transform="translate(2.807 2.807)" fill="#befaa0"/>
        <path id="BG_1" data-name="BG 1" d="M0,0H37.278V37.278H0Z" fill="none" opacity="0.58"/>
        <path id="Vector-2" data-name="Vector" d="M0,0H37.278V37.278H0Z" fill="none" opacity="0"/>
      </g>
    </g>
  </g>
  <g id="vuesax-linear-user-square" transform="translate(17.627 17.628)">
    <g id="vuesax-linear-user-square-2" data-name="vuesax-linear-user-square" transform="translate(-12 -12)">
      <g id="user-square">
        <path id="Vector-3" data-name="Vector" d="M14.3,4.65a15.022,15.022,0,0,1-3.657.38H3.657A15.022,15.022,0,0,1,0,4.65C.256,2.05,3.366,0,7.151,0S14.046,2.05,14.3,4.65Z" transform="translate(5.86 18.992)" fill="#fff" stroke="#22c55d" stroke-linecap="round" stroke-linejoin="round" stroke-width="1.5"/>
        <path id="Vector-4" data-name="Vector" d="M14.315,0H7.708C2.2,0,0,2.206,0,7.722V14.34c0,4.17,1.255,6.453,4.25,7.3.242-2.868,3.182-5.129,6.761-5.129s6.519,2.261,6.761,5.129c3-.849,4.25-3.133,4.25-7.3V7.722C22.022,2.206,19.82,0,14.315,0Zm-3.3,13.425a3.955,3.955,0,1,1,3.942-3.96A3.951,3.951,0,0,1,11.011,13.425Z" transform="translate(2 2)" fill="#22c55d" stroke="#22c55d" stroke-linecap="round" stroke-linejoin="round" stroke-width="1.5"/>
        <path id="Vector-5" data-name="Vector" d="M7.16,3.58A3.58,3.58,0,1,1,3.58,0,3.58,3.58,0,0,1,7.16,3.58Z" transform="translate(9.431 7.841)" fill="#fff" stroke="#fff" stroke-linecap="round" stroke-linejoin="round" stroke-width="1.5"/>
        <path id="Vector-6" data-name="Vector" d="M0,0H26.022V26.022H0Z" fill="none" opacity="0"/>
      </g>
    </g>
  </g>
</svg>
